<svg width="92" height="52" viewBox="0 0 92 52" fill="none" xmlns="http://www.w3.org/2000/svg">
<path d="M19.2227 51.3925V0.498047L21.0147 0.498047C25.2201 0.498047 28.9237 1.16708 32.1255 2.50515C35.3273 3.84322 38.0034 5.65917 40.1539 7.95301C42.3044 10.2468 43.9292 12.9469 45.0283 16.0531C46.1274 19.1116 46.677 22.385 46.677 25.8736C46.677 29.7444 46.0557 33.2569 44.8132 36.4109C43.6185 39.5171 41.8982 42.1933 39.6521 44.4393C37.4061 46.6376 34.706 48.3579 31.552 49.6004C28.398 50.7951 24.8856 51.3925 21.0147 51.3925H19.2227ZM30.2139 23.3164C30.2139 21.3571 30.2139 20.1352 30.2139 18.5376C30.2139 17.4838 30.2139 16.9344 30.2139 16.0531C29.2582 14.9062 30.2139 15.3579 30.2139 14.9535C30.2139 13.7588 30.2139 13.1615 30.2139 12.684V39.2065V37.6529C30.2139 38.0977 30.2139 36.7362 30.2139 36.4109C30.2139 35.3985 30.2139 35.2635 30.2139 34.6661C30.2139 32.4366 30.2139 36.4109 30.2139 26.9006C30.2139 25.1085 30.2139 25.228 30.2139 23.3164Z" fill="#FFDF42"/>
<path d="M10.2617 43.0289V9.57715H24.8749C26.4289 9.57715 27.8633 9.92266 29.1782 10.6137C30.4931 11.2733 31.6137 12.1528 32.5401 13.2521C33.4964 14.3201 34.2435 15.5608 34.7814 16.9742C35.3193 18.3563 35.5883 19.754 35.5883 21.1675C35.5883 23.1149 35.1849 24.9367 34.378 26.6328C33.5711 28.2976 32.4505 29.6639 31.0161 30.7318L37.7399 43.0289H27.8783L22.275 32.7578H19.0028V43.0289H10.2617ZM19.0028 24.7482H24.5163C25.0542 24.7482 25.5473 24.4341 25.9956 23.8059C26.4737 23.1777 26.7128 22.2982 26.7128 21.1675C26.7128 20.0053 26.4438 19.1258 25.9059 18.529C25.368 17.9008 24.8301 17.5867 24.2922 17.5867H19.0028V24.7482Z" fill="#211A1D"/>
<path d="M13.8455 36.6962V13.7588H12.0534L1.89844 26.4223V28.8117H25.7925" stroke="url(#paint0_linear_1_4272)" stroke-width="3"/>
<path d="M54.1307 12.3018H57.3277C58.5989 12.3018 59.5594 12.5264 60.2093 12.9756C60.8593 13.4248 61.1842 14.2228 61.1842 15.3698C61.1842 16.1439 61.0839 16.7604 60.8832 17.2192C60.6824 17.6779 60.3097 18.0363 59.7649 18.2944L61.3563 23.9143H58.704L57.4281 18.7102H56.6969V23.9143H54.1307V12.3018ZM57.4137 17.2335C57.9298 17.2335 58.2883 17.0997 58.489 16.8321C58.6992 16.5549 58.8044 16.1439 58.8044 15.5991C58.8044 15.0735 58.7088 14.6816 58.5176 14.4236C58.3265 14.1559 57.9967 14.0221 57.5284 14.0221H56.6969V17.2335H57.4137Z" fill="#A9D4FF"/>
<path d="M65.5943 12.3018H70.8127V14.0508H68.1605V16.9324H70.1819V18.7102H68.1605V22.1796H70.8414V23.9143H65.5943V12.3018Z" fill="#A9D4FF"/>
<path d="M74.8737 12.3018H76.6801L79.06 17.893V12.3018H81.1818V23.9143H79.4471L77.0672 17.893V23.9143H74.8737V12.3018Z" fill="#A9D4FF"/>
<path d="M86.8239 14.2085H85.0748V12.3018H91.1391V14.2085H89.4044V23.9143H86.8239V14.2085Z" fill="#A9D4FF"/>
<path d="M57.1987 35.6415H53.6289V33.8781L56.6539 26.6382H59.4352V33.8638H60.5104V35.6415H59.4352V38.2508H57.1987V35.6415ZM57.1987 33.8638V29.0324L55.4496 33.8638H57.1987Z" fill="#A9D4FF"/>
<path d="M64.5162 26.6382H67.4552C68.4587 26.6382 69.2425 26.7625 69.8064 27.011C70.3703 27.2595 70.7669 27.6513 70.9963 28.1866C71.2352 28.7122 71.3547 29.4195 71.3547 30.3084V34.5233C71.3547 35.4217 71.2352 36.1385 70.9963 36.6737C70.7669 37.209 70.3703 37.6056 69.8064 37.8637C69.252 38.1217 68.4779 38.2508 67.4839 38.2508H64.5162V26.6382ZM67.4839 36.473C67.8566 36.473 68.129 36.4205 68.301 36.3153C68.4826 36.2006 68.5973 36.0429 68.6451 35.8422C68.6929 35.632 68.7168 35.3261 68.7168 34.9247V29.8639C68.7168 29.4912 68.6881 29.2092 68.6308 29.0181C68.583 28.8174 68.4683 28.6692 68.2867 28.5736C68.1147 28.4781 67.8423 28.4303 67.4695 28.4303H67.0824V36.473H67.4839Z" fill="#A9D4FF"/>
<path d="M77.2501 26.6382H80.1748L82.3396 38.2508H79.9741L79.587 35.7992H77.8809L77.4795 38.2508H75.0567L77.2501 26.6382ZM79.3433 34.2652L78.7268 29.7349L78.1103 34.2652H79.3433Z" fill="#A9D4FF"/>
<path d="M87.2676 33.5054L85.0598 26.6382H87.4827L88.5866 30.3084L89.5758 26.6382H91.8983L89.7335 33.5054V38.2508H87.2676V33.5054Z" fill="#A9D4FF"/>
<defs>
<linearGradient id="paint0_linear_1_4272" x1="15.6375" y1="28.0953" x2="27.5846" y2="28.0953" gradientUnits="userSpaceOnUse">
<stop stop-color="white"/>
<stop offset="1" stop-color="#211A1D" stop-opacity="0"/>
</linearGradient>
</defs>
</svg>
