<svg width="21" height="21" viewBox="0 0 21 21" fill="none" xmlns="http://www.w3.org/2000/svg">
<path d="M10.8984 20.6836C16.4213 20.6836 20.8984 16.2064 20.8984 10.6836C20.8984 5.16075 16.4213 0.683594 10.8984 0.683594C5.37559 0.683594 0.898438 5.16075 0.898438 10.6836C0.898438 16.2064 5.37559 20.6836 10.8984 20.6836Z" fill="#0971BD"/>
<path fill-rule="evenodd" clip-rule="evenodd" d="M6.23242 7.83999C6.23242 7.83999 10.2572 10.1223 11.0384 10.1223C11.8572 10.1223 15.8383 7.88359 15.8383 7.88359L15.8447 7.48359C15.8447 7.04199 15.4863 6.68359 15.0435 6.68359H7.03321C6.59082 6.68359 6.23242 7.04199 6.23242 7.48359V7.83999ZM15.8384 9.0844C15.8384 9.0844 11.8948 11.2232 11.0384 11.2232C10.2572 11.2232 6.23842 9.0844 6.23882 9.0844L6.23242 13.8844C6.23242 14.326 6.59122 14.6844 7.03322 14.6844H15.0436C15.4864 14.6844 15.8448 14.326 15.8448 13.8844L15.8384 9.0844Z" fill="white"/>
</svg>
