<svg width="16" height="21" viewBox="0 0 16 21" fill="none" xmlns="http://www.w3.org/2000/svg">
<path d="M7.98177 0.683594C4.076 0.683594 0.898438 3.93289 0.898438 7.92681C0.898438 12.8834 7.23733 20.1599 7.50721 20.4673C7.76071 20.756 8.20329 20.7555 8.45633 20.4673C8.72621 20.1599 15.0651 12.8834 15.0651 7.92681C15.065 3.93289 11.8875 0.683594 7.98177 0.683594ZM7.98177 11.5711C6.01668 11.5711 4.41801 9.93626 4.41801 7.92681C4.41801 5.91735 6.01672 4.28258 7.98177 4.28258C9.94682 4.28258 11.5455 5.91739 11.5455 7.92685C11.5455 9.9363 9.94682 11.5711 7.98177 11.5711Z" fill="#FFDF42"/>
</svg>
