<svg width="81" height="81" viewBox="0 0 81 81" fill="none" xmlns="http://www.w3.org/2000/svg">
<g filter="url(#filter0_d_1_3524)">
<circle cx="40.8984" cy="35.6836" r="30" fill="#FFDF42"/>
</g>
<path d="M32.0096 30.4615C33.5736 30.4615 34.8683 29.2997 35.0851 27.7948H52.4542C52.6999 27.7948 52.8986 27.5962 52.8986 27.3504C52.8986 27.1046 52.6999 26.9059 52.4542 26.9059H35.0851C34.8683 25.401 33.5736 24.2393 32.0096 24.2393C30.294 24.2393 28.8984 25.6353 28.8984 27.3504C28.8984 29.0655 30.294 30.4615 32.0096 30.4615ZM32.0096 25.1282C33.2349 25.1282 34.2318 26.125 34.2318 27.3504C34.2318 28.5757 33.2349 29.5726 32.0096 29.5726C30.7842 29.5726 29.7873 28.5757 29.7873 27.3504C29.7873 26.125 30.7842 25.1282 32.0096 25.1282Z" fill="#211A1D" fill-opacity="0.8"/>
<path d="M32.0096 30.7115C33.6252 30.7115 34.9735 29.565 35.2946 28.0448H52.4542C52.838 28.0448 53.1486 27.7342 53.1486 27.3504C53.1486 26.9665 52.838 26.6559 52.4542 26.6559H35.2946C34.9735 25.1357 33.6252 23.9893 32.0096 23.9893C30.1559 23.9893 28.6484 25.4972 28.6484 27.3504C28.6484 29.2036 30.1559 30.7115 32.0096 30.7115ZM32.0096 25.3782C33.0968 25.3782 33.9818 26.2631 33.9818 27.3504C33.9818 28.4377 33.0968 29.3226 32.0096 29.3226C30.9223 29.3226 30.0373 28.4377 30.0373 27.3504C30.0373 26.2631 30.9223 25.3782 32.0096 25.3782Z" stroke="#211A1D" stroke-opacity="0.8" stroke-width="0.5"/>
<path d="M49.7875 42.9062C48.2235 42.9062 46.9288 44.068 46.7119 45.5729H29.3429C29.0975 45.5729 28.8984 45.7716 28.8984 46.0174C28.8984 46.2632 29.0975 46.4618 29.3429 46.4618H46.7119C46.9288 47.9667 48.2235 49.1285 49.7875 49.1285C51.5026 49.1285 52.8986 47.7325 52.8986 46.0174C52.8986 44.3023 51.5026 42.9062 49.7875 42.9062ZM49.7875 48.2396C48.5621 48.2396 47.5652 47.2427 47.5652 46.0174C47.5652 44.792 48.5621 43.7951 49.7875 43.7951C51.0128 43.7951 52.0097 44.792 52.0097 46.0174C52.0097 47.2427 51.0128 48.2396 49.7875 48.2396Z" fill="#211A1D" fill-opacity="0.8"/>
<path d="M49.7875 42.6562C48.1718 42.6562 46.8235 43.8027 46.5025 45.3229H29.3429C28.9596 45.3229 28.6484 45.6334 28.6484 46.0174C28.6484 46.4014 28.9596 46.7118 29.3429 46.7118H46.5025C46.8235 48.232 48.1718 49.3785 49.7875 49.3785C51.6407 49.3785 53.1486 47.8706 53.1486 46.0174C53.1486 44.1642 51.6407 42.6562 49.7875 42.6562ZM49.7875 47.9896C48.7002 47.9896 47.8152 47.1047 47.8152 46.0174C47.8152 44.9301 48.7002 44.0451 49.7875 44.0451C50.8747 44.0451 51.7597 44.9301 51.7597 46.0174C51.7597 47.1047 50.8747 47.9896 49.7875 47.9896Z" stroke="#211A1D" stroke-opacity="0.8" stroke-width="0.5"/>
<path d="M52.4542 36.2394H44.1732C43.9972 34.6385 42.6376 33.3887 40.9905 33.3887C39.3434 33.3887 37.9838 34.6389 37.8078 36.2394H29.3429C29.0975 36.2394 28.8984 36.438 28.8984 36.6838C28.8984 36.9296 29.0975 37.1283 29.3429 37.1283H37.8358C38.0923 38.6394 39.4074 39.7949 40.9905 39.7949C42.5736 39.7949 43.8883 38.6394 44.1448 37.1283H52.4542C52.6999 37.1283 52.8986 36.9296 52.8986 36.6838C52.8986 36.438 52.6999 36.2394 52.4542 36.2394ZM40.9905 38.906C39.7145 38.906 38.6763 37.8678 38.6763 36.5918C38.6763 35.3158 39.7145 34.2776 40.9905 34.2776C42.2665 34.2776 43.3048 35.3158 43.3048 36.5918C43.3048 37.8678 42.2665 38.906 40.9905 38.906Z" fill="#211A1D" fill-opacity="0.8"/>
<path d="M52.4542 35.9894H44.3898C44.1041 34.3715 42.6896 33.1387 40.9905 33.1387C39.2914 33.1387 37.877 34.3719 37.5912 35.9894H29.3429C28.9596 35.9894 28.6484 36.2998 28.6484 36.6838C28.6484 37.0678 28.9596 37.3783 29.3429 37.3783H37.6313C37.9883 38.9038 39.3563 40.0449 40.9905 40.0449C42.6247 40.0449 43.9923 38.9037 44.3493 37.3783H52.4542C52.838 37.3783 53.1486 37.0677 53.1486 36.6838C53.1486 36.3 52.838 35.9894 52.4542 35.9894ZM40.9905 38.656C39.8526 38.656 38.9263 37.7297 38.9263 36.5918C38.9263 35.4539 39.8526 34.5276 40.9905 34.5276C42.1285 34.5276 43.0548 35.4539 43.0548 36.5918C43.0548 37.7297 42.1285 38.656 40.9905 38.656Z" stroke="#211A1D" stroke-opacity="0.8" stroke-width="0.5"/>
<defs>
<filter id="filter0_d_1_3524" x="0.898438" y="0.683594" width="80" height="80" filterUnits="userSpaceOnUse" color-interpolation-filters="sRGB">
<feFlood flood-opacity="0" result="BackgroundImageFix"/>
<feColorMatrix in="SourceAlpha" type="matrix" values="0 0 0 0 0 0 0 0 0 0 0 0 0 0 0 0 0 0 127 0" result="hardAlpha"/>
<feOffset dy="5"/>
<feGaussianBlur stdDeviation="5"/>
<feColorMatrix type="matrix" values="0 0 0 0 0 0 0 0 0 0 0 0 0 0 0 0 0 0 0.08 0"/>
<feBlend mode="normal" in2="BackgroundImageFix" result="effect1_dropShadow_1_3524"/>
<feBlend mode="normal" in="SourceGraphic" in2="effect1_dropShadow_1_3524" result="shape"/>
</filter>
</defs>
</svg>
