<svg width="21" height="21" viewBox="0 0 21 21" fill="none" xmlns="http://www.w3.org/2000/svg">
<path d="M10.8984 0.683594C16.4213 0.683594 20.8984 5.16075 20.8984 10.6836C20.8984 16.2064 16.4213 20.6836 10.8984 20.6836C5.37559 20.6836 0.898437 16.2064 0.898437 10.6836C0.898437 5.16075 5.37559 0.683594 10.8984 0.683594Z" fill="#7F4DA0"/>
<path d="M13.5618 9.41581C13.5132 9.02068 13.3917 8.71042 13.1761 8.43561C12.896 8.08174 12.5381 7.86985 12.0082 7.74414C11.6629 7.66036 11.5234 7.66998 11.3985 7.78406C11.2822 7.89094 11.2595 8.10521 11.3484 8.24396C11.4109 8.34467 11.483 8.38075 11.6836 8.42012C11.9507 8.46927 12.1354 8.53306 12.3033 8.62908C12.6597 8.83488 12.8257 9.15694 12.8435 9.67833C12.8518 9.92314 12.8729 9.99841 12.9584 10.0852C13.1169 10.244 13.399 10.2131 13.5186 10.0232C13.5625 9.95156 13.5692 9.9204 13.5738 9.75417C13.5769 9.65125 13.5725 9.49807 13.5618 9.41581Z" fill="white"/>
<path d="M14.9586 9.86165C14.8882 8.65108 14.4147 7.67712 13.5673 6.99186C13.0899 6.60681 12.5128 6.34204 11.8802 6.21328C11.6484 6.16723 11.2218 6.1299 11.1486 6.15125C11.0795 6.17102 10.9818 6.24581 10.9383 6.31344C10.8922 6.38678 10.8819 6.55054 10.9211 6.64526C10.9845 6.8036 11.1025 6.85954 11.4328 6.88844C11.942 6.93299 12.4672 7.11189 12.864 7.37675C13.3171 7.6783 13.6772 8.09076 13.9102 8.57543C14.1115 8.99186 14.2353 9.59199 14.2319 10.1294C14.2308 10.3238 14.2608 10.4335 14.3389 10.5138C14.4569 10.6372 14.6289 10.6642 14.7807 10.5822C14.9489 10.4937 14.9883 10.3385 14.9586 9.86165Z" fill="white"/>
<path d="M16.5027 14.5242C16.479 14.455 16.4237 14.3483 16.3843 14.287C16.1356 13.9115 14.7995 12.8658 14.1324 12.5238C13.7515 12.3282 13.4692 12.263 13.26 12.3242C13.035 12.3875 12.9166 12.4922 12.5396 12.9607C12.3877 13.1485 12.2318 13.3244 12.1903 13.3521C12.0877 13.4232 11.8864 13.4806 11.7443 13.4806C11.4147 13.4786 10.8167 13.2651 10.3568 12.9844C9.9996 12.767 9.54175 12.3776 9.19042 11.9922C8.77594 11.5395 8.49375 11.1402 8.27071 10.6896C7.98257 10.1104 7.90955 9.75661 8.02992 9.49766C8.05954 9.43244 8.09901 9.36328 8.11675 9.34151C8.13453 9.32177 8.32006 9.16956 8.52529 9.00352C8.92793 8.68332 8.99305 8.61019 9.06805 8.39078C9.16278 8.11206 9.13714 7.82743 8.99109 7.54084C8.87858 7.3234 8.58451 6.84902 8.37137 6.54265C8.08914 6.13944 7.38653 5.27764 7.24638 5.16098C6.99376 4.95544 6.67012 4.91984 6.31286 5.05823C5.93593 5.2045 5.22936 5.77376 4.92739 6.17106C4.65503 6.5308 4.55046 6.78577 4.53465 7.12179C4.52085 7.39851 4.54452 7.51315 4.69057 7.86698C5.8333 10.6421 7.53848 12.8579 9.88119 14.6171C11.1048 15.5362 12.3739 16.2359 13.6903 16.7143C14.458 16.993 14.7915 17.0068 15.1843 16.7776C15.3501 16.6787 15.7606 16.2577 15.9895 15.9513C16.3685 15.4413 16.5086 15.2061 16.5481 15.0183C16.5757 14.8899 16.554 14.6665 16.5027 14.5242Z" fill="white"/>
<path d="M16.3796 10.1395C16.3543 9.45471 16.239 8.89303 15.9986 8.26681C15.7612 7.65082 15.521 7.24885 15.0674 6.70518C14.6385 6.19542 14.3053 5.90435 13.777 5.58036C13.0399 5.12895 12.1428 4.83022 11.1374 4.70459C10.7946 4.66068 10.717 4.66381 10.6118 4.734C10.408 4.86695 10.4107 5.19856 10.6152 5.32952C10.6829 5.37118 10.743 5.38636 11.0172 5.42225C11.4382 5.47893 11.7089 5.53235 12.0301 5.61999C13.2897 5.96431 14.2583 6.66812 14.9059 7.7129C15.4478 8.58373 15.6728 9.45462 15.6408 10.5669C15.6297 10.9429 15.6378 11.0091 15.6953 11.0994C15.8054 11.2678 16.0956 11.3011 16.2446 11.1614C16.3372 11.0763 16.3547 11.0123 16.373 10.6905C16.3817 10.5226 16.3836 10.2748 16.3796 10.1395Z" fill="white"/>
</svg>
