<svg width="21" height="21" viewBox="0 0 21 21" fill="none" xmlns="http://www.w3.org/2000/svg">
<path d="M10.8984 20.6836C16.4213 20.6836 20.8984 16.2064 20.8984 10.6836C20.8984 5.16075 16.4213 0.683594 10.8984 0.683594C5.37559 0.683594 0.898438 5.16075 0.898438 10.6836C0.898438 16.2064 5.37559 20.6836 10.8984 20.6836Z" fill="url(#paint0_linear_1_4278)"/>
<path d="M9.06576 15.2673C8.74179 15.2673 8.79684 15.1449 8.68511 14.8365L7.73242 11.7011L15.0658 7.35059" fill="#C8DAEA"/>
<path d="M9.06445 15.2672C9.31445 15.2672 9.42491 15.1529 9.56445 15.0172L10.8978 13.7207L9.23462 12.7178" fill="#A9C9DD"/>
<path d="M9.23471 12.7174L13.2647 15.6948C13.7246 15.9485 14.0565 15.8172 14.171 15.2678L15.8115 7.5376C15.9794 6.86425 15.5548 6.55885 15.1148 6.75858L5.48235 10.4728C4.82484 10.7366 4.82867 11.1034 5.3625 11.2668L7.83441 12.0384L13.5572 8.42794C13.8273 8.26411 14.0753 8.35219 13.8718 8.5328" fill="url(#paint1_linear_1_4278)"/>
<defs>
<linearGradient id="paint0_linear_1_4278" x1="8.39944" y1="1.51759" x2="3.39944" y2="13.1836" gradientUnits="userSpaceOnUse">
<stop stop-color="#37AEE2"/>
<stop offset="1" stop-color="#1E96C8"/>
</linearGradient>
<linearGradient id="paint1_linear_1_4278" x1="9.64621" y1="11.2975" x2="10.7147" y2="14.7537" gradientUnits="userSpaceOnUse">
<stop stop-color="#EFF7FC"/>
<stop offset="1" stop-color="white"/>
</linearGradient>
</defs>
</svg>
