<svg width="21" height="21" viewBox="0 0 21 21" fill="none" xmlns="http://www.w3.org/2000/svg">
<path d="M10.8984 20.6836C16.4213 20.6836 20.8984 16.2064 20.8984 10.6836C20.8984 5.16075 16.4213 0.683594 10.8984 0.683594C5.37559 0.683594 0.898438 5.16075 0.898438 10.6836C0.898438 16.2064 5.37559 20.6836 10.8984 20.6836Z" fill="#25D366"/>
<path fill-rule="evenodd" clip-rule="evenodd" d="M11.2287 16.2475H11.2262C10.231 16.2471 9.25317 15.9974 8.38465 15.5237L5.23242 16.3506L6.07601 13.2693C5.55564 12.3675 5.28183 11.3445 5.28228 10.2965C5.28358 7.01796 7.9511 4.35059 11.2286 4.35059C12.8194 4.35127 14.3123 4.97053 15.435 6.09451C16.5577 7.21843 17.1756 8.71239 17.175 10.3012C17.1737 13.579 14.5072 16.2461 11.2287 16.2475ZM8.5307 14.4472L8.71117 14.5543C9.47 15.0046 10.3398 15.2429 11.2267 15.2432H11.2287C13.9528 15.2432 16.1699 13.0261 16.171 10.3009C16.1715 8.98025 15.6579 7.73854 14.7248 6.80433C13.7917 5.87012 12.5507 5.35539 11.2306 5.35493C8.50447 5.35493 6.28732 7.57188 6.28624 10.2969C6.28586 11.2307 6.54716 12.1402 7.04189 12.9271L7.15941 13.1141L6.66012 14.9379L8.5307 14.4472ZM14.0209 11.5814C14.1245 11.6315 14.1945 11.6653 14.2244 11.7152C14.2615 11.7772 14.2615 12.0747 14.1378 12.4218C14.0139 12.7688 13.4204 13.0856 13.1349 13.1282C12.8789 13.1665 12.555 13.1825 12.1991 13.0693C11.9833 13.0009 11.7065 12.9095 11.352 12.7564C9.95914 12.1549 9.01784 10.8049 8.83993 10.5498C8.82747 10.5319 8.81875 10.5194 8.81389 10.5129L8.81269 10.5113C8.73407 10.4064 8.20721 9.70343 8.20721 8.9759C8.20721 8.29152 8.54339 7.93279 8.69814 7.76767C8.70874 7.75636 8.71849 7.74595 8.72722 7.73642C8.86341 7.58767 9.02438 7.55048 9.12343 7.55048C9.22247 7.55048 9.32163 7.55139 9.40819 7.55574C9.41887 7.55628 9.42999 7.55621 9.44147 7.55615C9.52805 7.55564 9.636 7.55501 9.74249 7.81079C9.78345 7.90922 9.84339 8.05515 9.90661 8.20906C10.0345 8.52032 10.1757 8.86423 10.2006 8.914C10.2377 8.98838 10.2625 9.07511 10.213 9.17431C10.2055 9.18919 10.1987 9.20323 10.1921 9.21664C10.1549 9.29258 10.1275 9.34844 10.0644 9.42215C10.0396 9.45114 10.0139 9.48239 9.98825 9.51363C9.93714 9.57588 9.88602 9.63813 9.84152 9.68247C9.76714 9.75656 9.68971 9.83694 9.77638 9.98569C9.86305 10.1344 10.1612 10.621 10.6029 11.015C11.0777 11.4385 11.4904 11.6175 11.6996 11.7082C11.7404 11.7259 11.7735 11.7403 11.7978 11.7524C11.9463 11.8268 12.033 11.8144 12.1196 11.7152C12.2063 11.6161 12.4911 11.2814 12.5901 11.1326C12.6891 10.9839 12.7882 11.0087 12.9244 11.0583C13.0606 11.1079 13.7911 11.4673 13.9397 11.5417C13.9687 11.5562 13.9958 11.5693 14.0209 11.5814Z" fill="#FDFDFD"/>
</svg>
